<svg width="10" height="10" viewBox="0 0 10 10" fill="none" xmlns="http://www.w3.org/2000/svg">
<path d="M9.15919 4.46789L7.39747 6.00539L7.9252 8.29445C7.95313 8.41412 7.94516 8.53936 7.90229 8.65452C7.85943 8.76968 7.78356 8.86965 7.68419 8.94193C7.58482 9.01421 7.46634 9.0556 7.34357 9.06091C7.22081 9.06622 7.0992 9.03522 6.99395 8.9718L4.99747 7.76086L3.00528 8.9718C2.90004 9.03522 2.77843 9.06622 2.65566 9.06091C2.5329 9.0556 2.41442 9.01421 2.31505 8.94193C2.21567 8.86965 2.13981 8.76968 2.09694 8.65452C2.05407 8.53936 2.04611 8.41412 2.07403 8.29445L2.60099 6.00773L0.838876 4.46789C0.745676 4.38751 0.678283 4.2814 0.645148 4.16287C0.612012 4.04434 0.61461 3.91866 0.652615 3.80161C0.69062 3.68455 0.76234 3.58131 0.858781 3.50485C0.955223 3.42839 1.07209 3.3821 1.19474 3.3718L3.51739 3.17062L4.42403 1.00813C4.47138 0.894655 4.55124 0.79773 4.65356 0.729554C4.75588 0.661378 4.87608 0.625 4.99903 0.625C5.12198 0.625 5.24219 0.661378 5.34451 0.729554C5.44683 0.79773 5.52669 0.894655 5.57403 1.00813L6.48341 3.17062L8.80528 3.3718C8.92792 3.3821 9.04479 3.42839 9.14124 3.50485C9.23768 3.58131 9.3094 3.68455 9.3474 3.80161C9.38541 3.91866 9.388 4.04434 9.35487 4.16287C9.32173 4.2814 9.25434 4.38751 9.16114 4.46789H9.15919Z" fill="#A7BB09"/>
</svg>
